HIERARCHY
ROOT Hips
{
    OFFSET 0.000000 0.000000 0.000000
    CHANNELS 6 Xposition Yposition Zposition Zrotation Xrotation Yrotation
    JOINT Spine
    {
        OFFSET -0.000000 14.517291 0.000000
        CHANNELS 3 Zrotation Xrotation Yrotation
        JOINT Spine1
        {
            OFFSET -0.000000 37.558300 0.000000
            CHANNELS 3 Zrotation Xrotation Yrotation
            JOINT Neck
            {
                OFFSET -0.000000 37.404057 3.400369
                CHANNELS 3 Zrotation Xrotation Yrotation
                JOINT Head
                {
                    OFFSET -0.000000 24.785618 -3.540803
                    CHANNELS 3 Zrotation Xrotation Yrotation
                    End Site
                    {
                        OFFSET -0.000000 35.408028 0.000000
                    }
                }
            }
            JOINT LeftShoulder
            {
                OFFSET 6.992933 33.973492 -0.192664
                CHANNELS 3 Zrotation Xrotation Yrotation
                JOINT LeftArm
                {
                    OFFSET 21.527611 0.000000 0.000000
                    CHANNELS 3 Zrotation Xrotation Yrotation
                    JOINT LeftForeArm
                    {
                        OFFSET 56.353916 0.000000 0.000000
                        CHANNELS 3 Zrotation Xrotation Yrotation
                        JOINT LeftHand
                        {
                            OFFSET 47.774071 0.000000 0.000000
                            CHANNELS 3 Zrotation Xrotation Yrotation
                            End Site
                            {
                                OFFSET 26.556021 0.000000 0.000000
                            }
                        }
                    }
                }
            }
            JOINT RightShoulder
            {
                OFFSET -7.065357 33.973492 -0.192664
                CHANNELS 3 Zrotation Xrotation Yrotation
                JOINT RightArm
                {
                    OFFSET -21.527611 0.000000 0.000000
                    CHANNELS 3 Zrotation Xrotation Yrotation
                    JOINT RightForeArm
                    {
                        OFFSET -56.353916 0.000000 0.000000
                        CHANNELS 3 Zrotation Xrotation Yrotation
                        JOINT RightHand
                        {
                            OFFSET -47.774071 0.000000 0.000000
                            CHANNELS 3 Zrotation Xrotation Yrotation
                            End Site
                            {
                                OFFSET -26.556021 0.000000 0.000000
                            }
                        }
                    }
                }
            }
        }
    }
    JOINT LeftUpLeg
    {
        OFFSET 17.704014 0.000000 0.000000
        CHANNELS 3 Zrotation Xrotation Yrotation
        JOINT LeftLeg
        {
            OFFSET -0.000000 -81.181816 0.000000
            CHANNELS 3 Zrotation Xrotation Yrotation
            JOINT LeftFoot
            {
                OFFSET -0.000000 -62.821102 0.000000
                CHANNELS 3 Zrotation Xrotation Yrotation
                JOINT LeftToeBase
                {
                    OFFSET -0.000000 -11.507608 26.556021
                    CHANNELS 3 Zrotation Xrotation Yrotation
                    End Site
                    {
                        OFFSET -0.000000 0.000000 7.081605
                    }
                }
            }
        }
    }
    JOINT RightUpLeg
    {
        OFFSET -17.704014 0.000000 0.000000
        CHANNELS 3 Zrotation Xrotation Yrotation
        JOINT RightLeg
        {
            OFFSET -0.000000 -81.181816 0.000000
            CHANNELS 3 Zrotation Xrotation Yrotation
            JOINT RightFoot
            {
                OFFSET -0.000000 -62.821102 0.000000
                CHANNELS 3 Zrotation Xrotation Yrotation
                JOINT RightToeBase
                {
                    OFFSET -0.000000 -11.507608 26.556021
                    CHANNELS 3 Zrotation Xrotation Yrotation
                    End Site
                    {
                        OFFSET -0.000000 0.000000 7.081605
                    }
                }
            }
        }
    }
}
MOTION
Frames:    13
Frame Time:    0.008333
-26.561176    163.833618    -25.008595    -9.592282    -23.990578    42.607342    3.381363    6.396958    -3.458864    4.548600    7.154349    -1.376965    25.549372    -1.814664    1.531165    -4.285488    -4.919727    -3.476560    11.197888    7.582433    -22.873365    -34.327511    19.293505    -53.452820    -2.987520    -27.628668    -108.950546    -7.646625    -30.613535    -11.510165    11.226766    1.495635    -6.379018    23.182325    -3.176139    36.355198    -22.876366    -8.510279    58.108402    -4.692235    3.019364    32.590839    26.573862    -5.573590    5.312504    -4.869965    40.577087    -19.450600    9.888936    -18.564316    35.129669    0.000000    0.000000    0.000000    -89.453613    -48.189835    -54.768642    6.992677    19.031052    -6.822994    12.170205    21.535196    -19.695330    0.000000    0.000000    0.000000    
-26.454439    163.731369    -24.888992    -9.432337    -24.208401    42.574982    3.415357    6.561278    -3.405896    4.547779    7.305371    -1.362976    25.469707    -1.815396    1.519788    -4.170979    -4.918719    -3.453550    11.158711    7.569030    -22.867395    -34.343769    19.254940    -53.424721    -2.992739    -27.584616    -108.936653    -7.701187    -30.568285    -11.560884    11.230881    1.489989    -6.360266    23.215961    -3.261861    36.400219    -22.834412    -8.441271    58.124348    -4.759601    3.048196    32.614773    26.602678    -5.277880    5.363258    -4.750729    40.732738    -19.476606    9.936529    -18.801092    35.052734    0.000000    0.000000    0.000000    -89.200066    -48.225399    -54.489376    7.022525    19.055214    -6.855791    12.192616    21.474176    -19.613998    0.000000    0.000000    0.000000    
-26.345175    163.648834    -24.738667    -9.268304    -24.472548    42.558636    3.436270    6.743350    -3.350747    4.601670    7.464015    -1.352175    25.462095    -1.805820    1.516096    -4.178329    -4.918362    -3.455239    11.098608    7.571684    -22.907690    -34.321026    19.252125    -53.397053    -3.090986    -27.681585    -109.037354    -7.771892    -30.797743    -11.287791    11.221515    1.495733    -6.350506    23.241709    -3.266005    36.433125    -22.904276    -8.450663    58.066414    -4.730163    3.068944    32.697666    26.668005    -4.967161    5.418909    -4.590865    40.926777    -19.538387    9.944494    -19.022615    34.946178    0.000000    0.000000    0.000000    -88.874786    -48.238918    -54.155312    7.071163    19.096920    -6.837026    12.210115    21.374149    -19.564995    0.000000    0.000000    0.000000    
-26.252138    163.554306    -24.626688    -9.143705    -24.629768    42.527237    3.434217    6.845154    -3.305500    4.637727    7.606322    -1.344193    25.477724    -1.809391    1.531032    -4.241169    -4.886486    -3.453713    11.033653    7.579913    -22.912872    -34.267353    19.275194    -53.373138    -2.911083    -27.701744    -108.909882    -7.731759    -30.576584    -11.600017    11.213297    1.500746    -6.336565    23.279873    -3.263966    36.489559    -22.972372    -8.477644    58.034870    -4.681851    3.089400    32.650349    26.681831    -4.799706    5.465809    -4.466388    41.182384    -19.574938    9.927198    -19.226152    34.877697    0.000000    0.000000    0.000000    -88.717880    -48.266411    -53.966270    7.110454    19.132002    -6.843760    12.275890    21.352747    -19.571953    0.000000    0.000000    0.000000    
-26.177744    163.440063    -24.560448    -9.078580    -24.686991    42.463833    3.433938    6.889039    -3.264747    4.655772    7.685867    -1.334558    25.388288    -1.795309    1.519062    -4.169956    -4.870234    -3.433800    10.952571    7.597802    -22.893351    -34.270641    19.239674    -53.343403    -2.906961    -27.646276    -108.902184    -7.735507    -30.517315    -11.592525    11.173038    1.499771    -6.309843    23.334682    -3.229697    36.528984    -22.999680    -8.526725    58.027042    -4.629676    3.070933    32.606461    26.663172    -4.794948    5.476725    -4.401822    41.530708    -19.590708    9.921165    -19.402884    34.898945    0.000000    0.000000    0.000000    -88.719475    -48.326256    -53.945911    7.118150    19.156590    -6.852859    12.333625    21.454533    -19.591345    0.000000    0.000000    0.000000    
-26.128166    163.330582    -24.523405    -9.092781    -24.657822    42.399487    3.432582    6.858562    -3.245083    4.672453    7.711379    -1.330411    25.306124    -1.814793    1.513369    -4.100964    -4.786520    -3.414365    10.897335    7.629455    -22.831123    -34.317314    19.177395    -53.356209    -2.942616    -27.518223    -108.895950    -7.676408    -30.445684    -11.508592    11.111053    1.503668    -6.287759    23.395742    -3.147212    36.560669    -23.071362    -8.569336    57.995163    -4.615514    3.065948    32.595287    26.646849    -4.943149    5.374411    -4.472494    41.889565    -19.512672    9.933926    -19.519903    34.992149    0.000000    0.000000    0.000000    -88.839294    -48.372448    -54.045311    7.117795    19.164278    -6.868723    12.143719    21.634783    -19.450903    0.000000    0.000000    0.000000    
-26.111835    163.217743    -24.511963    -9.187247    -24.532782    42.320000    3.418959    6.749015    -3.234405    4.684177    7.682309    -1.327759    25.255154    -1.831893    1.521457    -4.065225    -4.702078    -3.391563    10.884351    7.664137    -22.757824    -34.359444    19.159233    -53.395405    -3.006509    -27.430702    -108.911064    -7.621930    -30.446375    -11.461483    11.057306    1.536288    -6.283382    23.453871    -3.065216    36.611084    -23.162001    -8.627620    57.945549    -4.594580    3.049299    32.672928    26.635614    -5.222373    5.200837    -4.676173    42.231918    -19.378382    10.012980    -19.576632    35.178539    0.000000    0.000000    0.000000    -89.104378    -48.423046    -54.278625    7.112372    19.168781    -6.876830    12.205671    21.779383    -19.522860    0.000000    0.000000    0.000000    
-26.104515    163.116928    -24.505562    -9.307935    -24.386187    42.237324    3.410956    6.621167    -3.228940    4.676191    7.613974    -1.324087    25.215372    -1.835630    1.527620    -4.013764    -4.601919    -3.366316    10.900085    7.698644    -22.705240    -34.402435    19.170214    -53.426105    -3.215219    -27.426891    -109.045425    -7.612664    -30.722668    -11.159455    11.042083    1.603289    -6.282364    23.464405    -2.988667    36.663948    -23.195234    -8.718140    57.926773    -4.566651    2.983652    32.598835    26.642200    -5.514550    5.030819    -4.936672    42.532345    -19.328337    10.136878    -19.608482    35.502110    0.000000    0.000000    0.000000    -89.406937    -48.471786    -54.538109    7.121807    19.188419    -6.845148    12.231909    21.870256    -19.628809    0.000000    0.000000    0.000000    
-26.092810    163.035995    -24.484348    -9.391688    -24.276003    42.165417    3.389838    6.523778    -3.222957    4.666692    7.569188    -1.321032    25.246489    -1.808967    1.536295    -4.055864    -4.544119    -3.362288    10.933675    7.707136    -22.668421    -34.423592    19.221870    -53.432472    -3.214351    -27.454571    -109.053650    -7.594171    -30.753426    -11.112123    11.045035    1.643074    -6.258178    23.450224    -2.891747    36.686195    -23.229929    -8.814708    57.900177    -4.529886    2.911104    32.568737    26.651836    -5.679266    4.841033    -5.210460    42.693443    -19.276558    10.293249    -19.643883    35.840233    0.000000    0.000000    0.000000    -89.648758    -48.515945    -54.682323    7.159052    19.205994    -6.845280    12.274420    21.906429    -19.715927    0.000000    0.000000    0.000000    
-26.070965    162.973206    -24.432913    -9.436980    -24.234037    42.101746    3.375761    6.476538    -3.205338    4.662281    7.544203    -1.314622    25.285267    -1.760312    1.548073    -4.104202    -4.510329    -3.353281    10.976463    7.707326    -22.646889    -34.425789    19.292406    -53.438698    -3.182152    -27.535126    -109.049492    -7.626822    -30.787495    -11.147878    11.078500    1.713503    -6.251885    23.417498    -2.867698    36.738689    -23.275208    -8.826027    57.843346    -4.524910    2.909271    32.636520    26.682419    -5.703020    4.712884    -5.416776    42.746780    -19.182482    10.415436    -19.715302    36.035252    0.000000    0.000000    0.000000    -89.785370    -48.553375    -54.701603    7.222565    19.225977    -6.856359    12.280690    21.885277    -19.766695    0.000000    0.000000    0.000000    
-26.030359    162.929184    -24.348911    -9.430841    -24.277817    42.052776    3.390837    6.487476    -3.191118    4.640781    7.563504    -1.308878    25.336720    -1.715254    1.568668    -4.159290    -4.476207    -3.339218    11.008551    7.704661    -22.626383    -34.413891    19.326033    -53.434872    -3.148510    -27.596329    -109.055206    -7.656823    -30.802937    -11.164384    11.128117    1.753055    -6.231100    23.395636    -2.906312    36.783508    -23.266495    -8.749026    57.816441    -4.575964    2.958272    32.670475    26.727381    -5.586291    4.726902    -5.446350    42.734207    -19.109510    10.475018    -19.833662    35.999294    0.000000    0.000000    0.000000    -89.807747    -48.598831    -54.841488    7.215432    19.324377    -6.679402    12.350649    21.815369    -19.797880    0.000000    0.000000    0.000000    
-25.967451    162.901764    -24.236235    -9.364643    -24.399269    42.031273    3.392775    6.552577    -3.171625    4.668516    7.633328    -1.306316    25.332411    -1.702637    1.571865    -4.173580    -4.401593    -3.332261    10.992766    7.680597    -22.635963    -34.389069    19.357141    -53.408211    -3.101770    -27.681280    -109.051933    -7.752614    -30.815758    -11.244714    11.165646    1.789307    -6.227834    23.371101    -2.988328    36.837044    -23.225191    -8.637722    57.819557    -4.645657    3.023661    32.748016    26.768862    -5.367977    4.872015    -5.280632    42.717377    -19.122812    10.454745    -19.985731    35.800266    0.000000    0.000000    0.000000    -89.685974    -48.618584    -54.684986    7.258899    19.377565    -6.706125    12.385669    21.747438    -19.732473    0.000000    0.000000    0.000000    
-25.896299    162.881348    -24.113995    -9.281745    -24.551527    42.019333    3.389051    6.628771    -3.150108    4.722534    7.736746    -1.306237    25.326509    -1.719825    1.585832    -4.192597    -4.303855    -3.320593    10.970910    7.667386    -22.642500    -34.379791    19.330881    -53.403732    -3.065503    -27.707350    -109.039459    -7.797784    -30.788347    -11.313498    11.185471    1.797467    -6.238077    23.336618    -3.035968    36.892651    -23.155361    -8.555086    57.824543    -4.684171    3.053202    32.820103    26.816219    -5.142516    5.099339    -5.014199    42.749672    -19.212597    10.376267    -20.133018    35.548203    0.000000    0.000000    0.000000    -89.510986    -48.632446    -54.512127    7.291515    19.445656    -6.678722    12.422584    21.662901    -19.682440    0.000000    0.000000    0.000000    
